
        <svg xmlns="http://www.w3.org/2000/svg" xmlns:xlink="http://www.w3.org/1999/xlink" version="1.1" width="3240" height="2044.8481455020792" viewBox="0 0 3240 2044.8481455020792">
			
			<g transform="scale(12) translate(10, 10)">
				<defs id="SvgjsDefs1271"/><g id="SvgjsG1272" featureKey="nameFeature-0" transform="matrix(4.08991267622053,0,0,4.08991267622053,-8.17982535244106,-47.77019690817679)" fill="#fff"><path d="M13.44 12 l0 22.68 c0 3.52 -2.08 5.6 -5.36 5.6 c-4.08 0 -6.08 -2.24 -6.08 -5.6 l0 -22.68 l1.92 0 l0 22.48 c0 3.12 1.72 5.24 4.44 5.24 c2.52 0 4.52 -1.76 4.52 -4.92 l0 -22.8 l0.56 0 z M39.402 15.84 l-1 0.96 c-2.4 -2.76 -5.2 -4.56 -9.56 -4.56 c-7.92 0 -12.16 6.52 -12.16 13.76 s4.24 13.76 12.16 13.76 c3.72 0 7.16 -1.4 10.04 -4.24 l0.44 0.44 c-2.96 3.04 -6.76 4.36 -10.48 4.36 c-7.92 0 -14.24 -6.4 -14.24 -14.32 s6.32 -14.32 14.24 -14.32 c4.76 0 7.8 1.52 10.56 4.16 z M48.204 14.760000000000002 l1.16 -0.68 c-0.8 -1.32 -2.28 -2.36 -4.56 -2.36 c-3.04 0 -5.16 2.04 -5.16 4.92 c0 1.8 0.4 3.16 1.48 4.84 l5.56 8.56 c1.24 1.88 1.8 3.52 1.8 5.04 c0 2.52 -1.04 4.64 -3.64 4.64 s-3.84 -2.12 -3.84 -4.64 l0 -0.8 l-2.04 0 l0 1 c0 2.8 2.44 5 5.88 5 s5.64 -2.24 5.64 -5.44 c0 -1.76 -0.64 -3.56 -1.92 -5.52 l-5.56 -8.52 c-0.92 -1.44 -1.44 -2.92 -1.44 -4.44 c0 -2.04 0.96 -4.08 3.24 -4.08 c1.68 0 2.76 1 3.4 2.48 z M57.286 30.32 l0 9.68 l-1.92 0 l0 -9.56 l-5.36 -16.72 c-0.16 -0.48 -0.28 -1.04 -0.76 -1.72 l2.76 0 c-0.28 0.68 -0.24 1.12 -0.04 1.72 l5.04 15.72 l5.56 -17.44 l0.56 0 z"/></g><g id="SvgjsG1273" featureKey="sloganFeature-0" transform="matrix(0.9452911281144003,0,0,0.9452911281144003,43.01526622418048,131.32272298035858)" fill="#fff"><path d="M9.5508 20 l-3.5742 -6.2109 l-1.9336 0 l0 6.2109 l-1.9434 0 l0 -13.809 l4.6484 0 c2.8906 0 4.209 1.7676 4.209 3.9355 c0 1.9238 -1.1328 3.2617 -3.0273 3.584 l3.8965 6.2891 l-2.2754 0 z M4.043 7.871 l0 4.4336 l2.4414 0 c1.7969 0 2.6074 -0.89844 2.6074 -2.207 c0 -1.2891 -0.81055 -2.2266 -2.6074 -2.2266 l-2.4414 0 z M25.05617734375 7.939 l-5.5273 0 l0 4.2969 l4.873 0 l0 1.7383 l-4.873 0 l0 4.2676 l5.5273 0 l0 1.7578 l-7.5098 0 l0 -13.809 l7.5098 0 l0 1.748 z M37.1142421875 20.18555 c-3.8672 0 -6.8359 -2.6465 -6.8359 -7.0508 c0 -4.4434 2.9883 -7.1289 6.9043 -7.1289 c2.5391 0 4.7168 1.1133 5.9082 3.2227 l-1.7188 0.91797 c-0.86914 -1.6211 -2.4219 -2.373 -4.1895 -2.373 c-2.793 0 -4.9512 1.8945 -4.9512 5.3223 c0 3.3789 2.1094 5.3418 5.0195 5.3418 c2.3438 0 4.1797 -1.3184 4.502 -3.9355 l-4.5117 0 l0 -1.6211 l6.3965 0 l0 7.1191 l-1.582 0 l0 -2.4805 c-0.9082 1.6895 -2.6172 2.666 -4.9414 2.666 z M50.06102578125 20 l0 -13.809 l1.9434 0 l0 13.809 l-1.9434 0 z M63.427753125 20.18555 c-2.8809 0 -4.9902 -1.377 -5.459 -3.7207 l1.9824 -0.46875 c0.3125 1.6113 1.709 2.5391 3.5449 2.5391 c1.4746 0 2.8906 -0.60547 2.8613 -2.2656 c-0.019531 -1.6406 -1.7969 -2.0898 -3.6816 -2.6074 c-2.1387 -0.58594 -4.2773 -1.2598 -4.2773 -3.7988 c0 -2.5684 2.1191 -3.8574 4.6289 -3.8574 c2.4316 0 4.6191 1.0254 5.1367 3.3984 l-1.8848 0.47852 c-0.3418 -1.5332 -1.6211 -2.2168 -3.1641 -2.2168 c-1.3867 0 -2.7637 0.60547 -2.7637 2.1777 c0 1.4258 1.543 1.8457 3.291 2.3145 c2.1973 0.5957 4.7168 1.2793 4.7168 4.0527 c0 2.793 -2.3438 3.9746 -4.9316 3.9746 z M81.79440859375 6.191000000000001 l0 1.748 l-3.4961 0 l0 12.061 l-1.9238 0 l0 -12.061 l-3.5059 0 l0 -1.748 l8.9258 0 z M94.7607609375 20 l-3.5742 -6.2109 l-1.9336 0 l0 6.2109 l-1.9434 0 l0 -13.809 l4.6484 0 c2.8906 0 4.209 1.7676 4.209 3.9355 c0 1.9238 -1.1328 3.2617 -3.0273 3.584 l3.8965 6.2891 l-2.2754 0 z M89.2529609375 7.871 l0 4.4336 l2.4414 0 c1.7969 0 2.6074 -0.89844 2.6074 -2.207 c0 -1.2891 -0.81055 -2.2266 -2.6074 -2.2266 l-2.4414 0 z M111.69173828125 20 l-1.1523 -3.2227 l-6.1719 0 l-1.1523 3.2227 l-2.0215 0 l5.0879 -13.809 l2.3438 0 l5.0879 13.809 l-2.0215 0 z M104.97313828125 15.0781 l4.9609 0 l-2.4805 -6.9629 z M126.591771875 6.191000000000001 l0 1.748 l-3.4961 0 l0 12.061 l-1.9238 0 l0 -12.061 l-3.5059 0 l0 -1.748 l8.9258 0 z M132.10692421875 20 l0 -13.809 l1.9434 0 l0 13.809 l-1.9434 0 z M147.0947515625 20.18555 c-3.916 0 -6.9043 -2.6953 -6.9043 -7.0996 c0 -4.3945 2.9883 -7.0801 6.9043 -7.0801 c3.8965 0 6.8945 2.6855 6.8945 7.0801 c0 4.4043 -2.998 7.0996 -6.8945 7.0996 z M147.0947515625 18.3594 c2.7637 0 4.9512 -1.9141 4.9512 -5.2734 c0 -3.3301 -2.1875 -5.2441 -4.9512 -5.2441 c-2.7734 0 -4.9707 1.9141 -4.9707 5.2441 c0 3.3594 2.1973 5.2734 4.9707 5.2734 z M169.42601953125 6.191000000000001 l1.9336 0 l0 13.809 l-2.0996 0 l-7.2168 -10.957 l0 10.957 l-1.9238 0 l0 -13.809 l2.0801 0 l7.2266 10.908 l0 -10.908 z"/></g>
			</g>
		</svg>
	